<svg xmlns="http://www.w3.org/2000/svg" width="19.374" height="19" viewBox="0 0 19.374 19"><defs><style>.a{fill:#ffbc00;}</style></defs><g transform="translate(0 0)"><ellipse class="a" cx="1.811" cy="1.793" rx="1.811" ry="1.793" transform="translate(3.417)"/><path class="a" d="M19.009,18.181a10.351,10.351,0,0,1-2.628-3.261,1.466,1.466,0,0,0-1.275-.738H13.192a1.466,1.466,0,0,0-1.275.738,11.6,11.6,0,0,1-2.231,2.945A11.587,11.587,0,0,1,7.457,14.92a1.466,1.466,0,0,0-1.274-.738H4.268a1.466,1.466,0,0,0-1.274.738A10.35,10.35,0,0,1,.365,18.181c-.866.617-.033,2.052.843,1.427a12.993,12.993,0,0,0,2.331-2.1c0,4.779-.394,8.327-.4,10.676a.836.836,0,0,0,1.671,0c.006-2.075.13-4.146.322-6.211h.187c.192,2.066.316,4.136.322,6.211a.836.836,0,0,0,1.671,0c-.008-2.349-.4-5.9-.4-10.676a13.026,13.026,0,0,0,2.331,2.1.739.739,0,0,0,.891,0,12.993,12.993,0,0,0,2.331-2.1c0,4.779-.394,8.327-.4,10.676a.837.837,0,0,0,1.671,0c.006-2.075.13-4.146.322-6.211h.187c.192,2.066.316,4.136.322,6.211a.836.836,0,0,0,1.671,0c-.007-2.349-.4-5.9-.4-10.676a13.026,13.026,0,0,0,2.331,2.1C19.042,20.233,19.875,18.8,19.009,18.181Z" transform="translate(0 -9.98)"/><ellipse class="a" cx="1.811" cy="1.793" rx="1.811" ry="1.793" transform="translate(12.335)"/></g></svg>