<svg xmlns="http://www.w3.org/2000/svg" width="12.492" height="10.93" viewBox="0 0 12.492 10.93"><defs><style>.a{fill:#ffbc00;}</style></defs><g transform="translate(0 -32.021)"><g transform="translate(0 36.184)"><path class="a" d="M9.043,207.356l.115-.022c.135-.026,3.334-.653,3.334-2.338a1.224,1.224,0,0,0-.5-1.113,1.958,1.958,0,0,0-1.578-.042v-.407a.782.782,0,0,0-.781-.781H2.342a.782.782,0,0,0-.781.781v.52a4.921,4.921,0,0,0,1.923,3.9H.26a.261.261,0,0,0-.184.445l.583.583a1.812,1.812,0,0,0,1.288.534h8.075a1.836,1.836,0,0,0,1.288-.534l.583-.583a.261.261,0,0,0-.184-.445H8.486A4.832,4.832,0,0,0,9.043,207.356Zm1.337-2.954a1.767,1.767,0,0,1,1.327-.081.737.737,0,0,1,.265.675c0,.866-1.447,1.445-2.4,1.706A4.917,4.917,0,0,0,10.379,204.4Z" transform="translate(0 -202.654)"/></g><g transform="translate(7.287 32.022)"><g transform="translate(0 0)"><path class="a" d="M299.41,34.033a1.559,1.559,0,0,0,0-1.886.26.26,0,0,0-.406.325,1.047,1.047,0,0,1,0,1.236,1.559,1.559,0,0,0,0,1.886.261.261,0,0,0,.407-.325A1.047,1.047,0,0,1,299.41,34.033Z" transform="translate(-298.685 -32.049)"/></g></g><g transform="translate(5.724 32.022)"><g transform="translate(0 0)"><path class="a" d="M235.327,34.03a1.558,1.558,0,0,0,0-1.886.26.26,0,1,0-.406.325,1.05,1.05,0,0,1,0,1.236,1.558,1.558,0,0,0,0,1.886.26.26,0,0,0,.407-.325A1.05,1.05,0,0,1,235.327,34.03Z" transform="translate(-234.602 -32.047)"/></g></g><g transform="translate(4.164 32.021)"><g transform="translate(0 0)"><path class="a" d="M171.415,34a1.559,1.559,0,0,0,0-1.886.26.26,0,0,0-.406.325,1.05,1.05,0,0,1,0,1.236,1.558,1.558,0,0,0,0,1.886.26.26,0,0,0,.406-.326A1.05,1.05,0,0,1,171.415,34Z" transform="translate(-170.69 -32.021)"/></g></g></g></svg>