<svg xmlns="http://www.w3.org/2000/svg" width="19.923" height="19" viewBox="0 0 19.923 19"><defs><style>.a{fill:#ffbc00;}</style></defs><g transform="translate(-6.543 1.558)"><g transform="translate(6.543 5.96)"><g transform="translate(0 0)"><path class="a" d="M37.819,68.5h-6.53c-.712,0-1.289.405-1.289.906s.576.906,1.289.906h6.53c.712,0,1.289-.405,1.289-.906S38.531,68.5,37.819,68.5Z" transform="translate(-30 -68.5)"/></g></g><g transform="translate(10.501 9.96)"><g transform="translate(0)"><path class="a" d="M34.36,188.5H30.719a.931.931,0,0,0,0,1.812H34.36a.931.931,0,0,0,0-1.812Z" transform="translate(-30 -188.5)"/></g></g><g transform="translate(7.734 1.961)"><g transform="translate(0 0)"><path class="a" d="M6.617,128.5H1.091a.922.922,0,1,0,0,1.812H6.617a.922.922,0,1,0,0-1.812Z" transform="translate(0 -128.5)"/></g></g><g transform="translate(18.436 -1.558)"><g transform="translate(0 0)"><ellipse class="a" cx="1.624" cy="1.624" rx="1.624" ry="1.624" transform="translate(2.36)"/><path class="a" d="M20,11.058a2.923,2.923,0,0,0-1.223.015c-2.659.31-3.522,3.376-3.278,5.713.106,1.011,1.705,1.021,1.6,0a6.045,6.045,0,0,1,.4-3.051v3.331c0,.039,0,.076.006.114,0,.018-.005.033-.005.052,0,2.643,0,5.286-.114,7.927-.049,1.174,1.779,1.17,1.827,0,.086-2.07.108-4.141.112-6.213a2.122,2.122,0,0,0,.26,0c.005,2.072.026,4.143.111,6.212.049,1.17,1.876,1.174,1.827,0-.11-2.641-.114-5.284-.114-7.927A.994.994,0,0,0,21.384,17c0-1.148-.046-2.3-.033-3.443a5.754,5.754,0,0,1,.5,3.225c-.107,1.02,1.492,1.01,1.6,0C23.7,14.4,22.793,11.254,20,11.058Z" transform="translate(-15.459 -7.038)"/></g></g></g></svg>