<svg xmlns="http://www.w3.org/2000/svg" width="13.528" height="13.493" viewBox="0 0 13.528 13.493"><defs><style>.a{fill:#ffbc00;}</style></defs><g transform="translate(0.298)"><path class="a" d="M11.961,16.236H13a.528.528,0,1,1,0,1.057H11.961a.528.528,0,1,1,0-1.057ZM.528,17.293H1.568a.528.528,0,1,0,0-1.057H.528a.528.528,0,1,0,0,1.057Zm6.236-5.2a.528.528,0,0,0,.528-.528V10.528a.528.528,0,0,0-1.057,0v1.039A.528.528,0,0,0,6.764,12.1ZM2.716,13.463a.528.528,0,0,0,.747-.747l-.735-.735a.528.528,0,0,0-.747.747Zm8.1,0,.735-.735a.528.528,0,0,0-.747-.747l-.735.735a.528.528,0,0,0,.747.747Z" transform="translate(-0.298 -10)"/><path class="a" d="M11.961,11.057H13A.528.528,0,0,0,13,10H11.961a.528.528,0,0,0,0,1.057ZM.528,10H1.568a.528.528,0,0,1,0,1.057H.528A.528.528,0,0,1,.528,10Zm6.236,5.2a.528.528,0,0,1,.528.528v1.039a.528.528,0,1,1-1.057,0V15.725A.528.528,0,0,1,6.764,15.2ZM2.716,13.829a.528.528,0,0,1,.747.747l-.735.735a.528.528,0,0,1-.747-.747Zm8.1,0,.735.735a.528.528,0,0,1-.747.747l-.735-.735a.528.528,0,0,1,.747-.747Z" transform="translate(-0.298 -3.8)"/><g transform="translate(2.524 2.524)"><path class="a" d="M104.1,100.174a3.927,3.927,0,1,0,3.927,3.927A3.931,3.931,0,0,0,104.1,100.174Zm0,2.524a1.4,1.4,0,0,0-1.4,1.4.421.421,0,0,1-.841,0,2.246,2.246,0,0,1,2.244-2.244.421.421,0,0,1,0,.841Z" transform="translate(-100.174 -100.174)"/></g></g></svg>